<?xml version="1.0" encoding="UTF-8"?>
<svg version="1.1" xmlns="http://www.w3.org/2000/svg" width="399" height="399">
<path d="M0 0 C3.13559349 3.13559349 2.29312203 6.52784162 2.3293457 10.81152344 C2.32100708 12.60638184 2.32100708 12.60638184 2.3125 14.4375 C2.30758545 15.65856445 2.3026709 16.87962891 2.29760742 18.13769531 C1.98630701 42.44786269 -3.15241979 67.35283334 -20.9140625 85.20703125 C-32.11466646 95.75154806 -49.42671318 105 -65 105 C-64.55486339 98.19480543 -63.14899784 93.14529132 -60.125 87.0625 C-59.73078857 86.24910156 -59.33657715 85.43570313 -58.93041992 84.59765625 C-55.23736111 77.1468616 -50.95551886 70.10358366 -46.53125 63.0703125 C-43.45186784 58.1694208 -40.6786337 53.13122236 -38 48 C-56.35749488 64.93728754 -71.34535141 87.79516746 -75.06958008 112.76245117 C-75.24515945 113.93112228 -75.42073883 115.0997934 -75.60163879 116.30387878 C-75.73309799 117.19359879 -75.86455719 118.08331879 -76 119 C-75.28916197 118.99631283 -74.57832394 118.99262566 -73.84594536 118.98882675 C-56.54427791 118.90046331 -39.24266784 118.8342844 -21.94082451 118.79275131 C-13.57374845 118.772132 -5.20682308 118.74402356 3.16015625 118.69824219 C10.45340129 118.65835498 17.74653718 118.63256259 25.03988826 118.62364602 C28.90119175 118.61843442 32.76218303 118.60619874 36.62338638 118.57707977 C40.25955802 118.54988066 43.89528956 118.54156391 47.53155327 118.54756927 C49.49854527 118.54594832 51.46548961 118.52444901 53.43235779 118.50231934 C64.1918103 118.55255008 64.1918103 118.55255008 69 123 C71.21286335 125.6939206 71.00188963 126.97706092 70.71118164 130.50610352 C70.0239004 135.53278973 68.62704909 140.29810457 67.18359375 145.15234375 C66.8953624 146.14127121 66.60713104 147.13019867 66.31016541 148.14909363 C65.35797285 151.41348986 64.39775726 154.67546789 63.4375 157.9375 C62.07031229 162.60954192 60.70804535 167.28300556 59.34765625 171.95703125 C58.99421143 173.17022034 58.6407666 174.38340942 58.27661133 175.63336182 C55.84652334 184.00371047 53.48333986 192.39047061 51.16471291 200.79218483 C50.62393366 202.75142974 50.08187993 204.71031789 49.53947449 206.66911316 C48.13945313 211.72745886 46.73980381 216.78582804 45.36032104 221.849823 C44.40286907 225.36336849 43.43296271 228.87327551 42.4609375 232.3828125 C42.04605324 233.92813911 42.04605324 233.92813911 41.62278748 235.50468445 C38.94830877 245.08357613 35.79227336 254.48620145 27 260 C22.88634699 261.99537218 19.52528897 262.25515784 14.97419739 262.26742554 C14.27869347 262.27195665 13.58318955 262.27648776 12.86660975 262.28115618 C10.54227139 262.29378934 8.21816767 262.29218052 5.89379883 262.29052734 C4.2245758 262.29651342 2.55535554 262.30331915 0.88613892 262.31088257 C-3.64509848 262.3285452 -8.17626033 262.33323816 -12.70752883 262.33451414 C-15.54106858 262.33593655 -18.37458917 262.34020792 -21.20812416 262.34550858 C-31.10108279 262.36401217 -40.99398753 262.37217908 -50.88696289 262.37060547 C-60.09541786 262.3694051 -69.30363805 262.39048603 -78.51203364 262.4220928 C-86.42731073 262.44828872 -94.34251132 262.45897132 -102.25783139 262.45769465 C-106.98097919 262.45718584 -111.70391847 262.46282361 -116.42702293 262.48405075 C-120.87339351 262.50348818 -125.31935793 262.50352017 -129.76574326 262.48901749 C-131.39184859 262.48693485 -133.01797971 262.49159758 -134.64404106 262.5037384 C-145.87715751 262.58213319 -155.88736242 261.80487953 -164.48852539 253.74121094 C-169.79679124 247.62611611 -172.16286333 240.11094543 -174.25 232.4375 C-174.68664474 230.88915215 -174.68664474 230.88915215 -175.1321106 229.30952454 C-176.09828175 225.87578906 -177.04885775 222.43792575 -178 219 C-178.68469525 216.55846174 -179.3707652 214.11730863 -180.05810547 211.67651367 C-181.16553263 207.74384335 -182.27258754 203.81108633 -183.37496948 199.8769989 C-187.75039582 184.2710474 -192.24561527 168.69965335 -196.73681641 153.12670898 C-198.09791386 148.40709342 -199.45746737 143.68703438 -200.81640625 138.96679688 C-201.03238338 138.21663237 -201.24836052 137.46646786 -201.47088242 136.69357109 C-202.51804062 133.05603625 -203.56479263 129.41838503 -204.61090088 125.7805481 C-204.8080859 125.09484678 -205.00527092 124.40914547 -205.20843124 123.70266533 C-205.59456077 122.359876 -205.98066217 121.01707858 -206.36673355 119.67427254 C-207.55652605 115.53736883 -208.75124012 111.4019125 -209.94824219 107.26708984 C-210.50461139 105.33823175 -211.06093096 103.40935934 -211.6171875 101.48046875 C-211.98978195 100.2001049 -211.98978195 100.2001049 -212.36990356 98.89387512 C-214 93.22670264 -214 93.22670264 -214 91 C-215.08941895 91.02618408 -216.17883789 91.05236816 -217.30126953 91.0793457 C-221.36014097 91.17014661 -225.41892345 91.22735684 -229.47851562 91.2746582 C-231.23225015 91.29973467 -232.98588086 91.33380495 -234.73925781 91.37719727 C-237.26653706 91.43815604 -239.79242981 91.46627719 -242.3203125 91.48828125 C-243.09867462 91.51408768 -243.87703674 91.5398941 -244.6789856 91.56648254 C-248.75535344 91.56856201 -251.26010024 91.20463163 -254.49487305 88.61206055 C-257 86 -257 86 -257.76171875 83.71875 C-257.73722656 82.9865625 -257.71273438 82.254375 -257.6875 81.5 C-257.69136719 80.7678125 -257.69523437 80.035625 -257.69921875 79.28125 C-256.58505252 75.64620486 -255.04106678 74.30533997 -252 72 C-248.2405824 71.25775645 -244.53644612 71.3230828 -240.71484375 71.37109375 C-239.07498253 71.36747581 -239.07498253 71.36747581 -237.4019928 71.36378479 C-235.09469977 71.36476287 -232.78738317 71.37814696 -230.48022461 71.40307617 C-226.94629379 71.43741455 -223.41485922 71.42372391 -219.88085938 71.40429688 C-217.63801018 71.41119444 -215.39516744 71.420866 -213.15234375 71.43359375 C-212.0949852 71.42863388 -211.03762665 71.42367401 -209.94822693 71.41856384 C-202.69931121 71.53515596 -202.69931121 71.53515596 -199.41210938 73.72021484 C-197.89726924 76.16585404 -197.01530237 78.26852803 -196.25390625 81.04296875 C-195.97619385 82.02700684 -195.69848145 83.01104492 -195.41235352 84.02490234 C-195.13190186 85.06855957 -194.8514502 86.1122168 -194.5625 87.1875 C-193.95865907 89.35035139 -193.35449012 91.51311122 -192.75 93.67578125 C-192.45609375 94.74393066 -192.1621875 95.81208008 -191.859375 96.91259766 C-190.45373018 101.96253641 -188.93662873 106.97867792 -187.42211914 111.99682617 C-186 116.78174637 -186 116.78174637 -186 119 C-139.965 118.505 -139.965 118.505 -93 118 C-90.66185125 110.98555374 -91.63963692 104.21752695 -94.62109375 97.55859375 C-102.04991498 83.77423708 -113.68357478 72.42341875 -126 63 C-127.0731455 62.16044867 -128.14605558 61.32059635 -129.21875 60.48046875 C-135.03171969 55.58316252 -135.03171969 55.58316252 -142 53 C-141.35675781 53.49886719 -140.71351563 53.99773437 -140.05078125 54.51171875 C-128.5451373 63.6538638 -118.02586149 73.60118553 -110 86 C-109.00806641 87.51980469 -109.00806641 87.51980469 -107.99609375 89.0703125 C-104.44435891 94.79613958 -102.13049207 99.2144123 -102 106 C-114.18304893 110.06101631 -135.24591413 102.78139698 -146.375 97.25 C-166.91459114 86.54451613 -182.11241988 69.85917782 -190 48 C-194.15116008 33.78097134 -195.21435945 19.76698442 -195 5 C-190.53940839 3.68553626 -187.67017006 4.41490719 -183.28515625 5.80859375 C-182.31949989 6.11098213 -182.31949989 6.11098213 -181.33433533 6.41947937 C-179.23953533 7.07972319 -177.15099267 7.75759072 -175.0625 8.4375 C-173.61273987 8.90187246 -172.16286921 9.36589996 -170.71289062 9.82958984 C-153.27929928 15.43598384 -136.07699127 21.11249472 -120 30 C-118.99710938 30.55171875 -117.99421875 31.1034375 -116.9609375 31.671875 C-101.47470114 40.83274721 -91.689088 54.16446597 -86.93359375 71.26953125 C-84.94167841 79.22885824 -84.86241235 86.82117831 -85 95 C-84.34 94.67 -83.68 94.34 -83 94 C-82.98541748 93.4423999 -82.97083496 92.8847998 -82.95581055 92.31030273 C-82.2674284 68.63044346 -79.18278982 51.2328125 -62 34 C-60.69482422 32.68902344 -60.69482422 32.68902344 -59.36328125 31.3515625 C-58.19345703 30.18753906 -58.19345703 30.18753906 -57 29 C-56.45859375 28.44957031 -55.9171875 27.89914063 -55.359375 27.33203125 C-45.07364594 17.62050551 -31.42677832 11.54423887 -18.875 5.375 C-17.80838135 4.84173096 -16.7417627 4.30846191 -15.64282227 3.7590332 C-5.87588599 -0.93950481 -5.87588599 -0.93950481 0 0 Z M-4.1796875 148.60351562 C-19.34077737 154.53038956 -35.74593171 155.26744847 -51.78320312 156.80224609 C-78.24905857 159.359075 -95.53365914 165.04347156 -113.67578125 184.93359375 C-120.55008743 194.00305652 -123.7612971 206.79600189 -125 218 C-124.70759723 219.34290339 -124.38193295 220.67976664 -124 222 C-123.6282666 221.5875 -123.2565332 221.175 -122.87353516 220.75 C-111.37839578 208.05398166 -99.95234337 196.63719733 -83.625 190.5625 C-82.84825928 190.26811035 -82.07151855 189.9737207 -81.27124023 189.67041016 C-66.72995105 184.21834222 -52.06185912 179.77381393 -37 176 C-39.8803502 178.29709391 -42.73945407 179.95723184 -46.0703125 181.5234375 C-47.05 181.9875 -48.0296875 182.4515625 -49.0390625 182.9296875 C-50.05742187 183.40664062 -51.07578125 183.88359375 -52.125 184.375 C-83.83566985 199.17034456 -83.83566985 199.17034456 -109 223 C-109.33 223.99 -109.66 224.98 -110 226 C-105.14818221 226.1954478 -100.296114 226.3735839 -95.44311523 226.53710938 C-93.79939589 226.59476688 -92.15582273 226.65679277 -90.51245117 226.72363281 C-67.97726578 227.63247622 -46.10086861 225.06954308 -28.5 209.375 C-26.9869148 207.93024768 -25.48488512 206.47372057 -24 205 C-23.0925 204.13375 -22.185 203.2675 -21.25 202.375 C-20.5075 201.59125 -19.765 200.8075 -19 200 C-18.0925 199.05125 -17.185 198.1025 -16.25 197.125 C-5.27414067 184.08940357 7 162.40604842 7 145 C3.15974296 145 -0.64095055 147.15292001 -4.1796875 148.60351562 Z " fill="#0A3C1F" transform="translate(263,60)"/>
<path d="M0 0 C23.53333537 12.0465339 40.69559061 32.00563077 48.9909668 57.15136719 C51.40119901 64.94245218 54.38472107 75.48510778 50.8894043 83.17480469 C48.38478989 86.34274163 46.0991144 86.73049084 42.1784668 87.33886719 C38.66082016 86.45945553 36.40654725 85.1885944 34.1784668 82.33886719 C33.6237793 79.51074219 33.6237793 79.51074219 33.3034668 76.08886719 C30.84502624 56.56240077 21.75753024 39.01009666 6.6394043 26.21386719 C-5.76918651 16.75970277 -19.59492395 12.45939678 -34.83178711 10.32617188 C-41.95542332 9.31236864 -41.95542332 9.31236864 -44.8215332 7.33886719 C-47.49242487 3.33252968 -47.52847193 0.04895291 -46.8215332 -4.66113281 C-38.058506 -16.74806688 -10.84269505 -5.26443173 0 0 Z " fill="#0E3D22" transform="translate(341.821533203125,76.6611328125)"/>
<path d="M0 0 C17.50417852 4.08308767 31.6562942 12.66649682 41.55859375 27.875 C47.13510675 36.96786401 50.85883896 47.64355319 49.609375 58.37109375 C47.49920732 61.83176875 46.07640069 62.24372311 42.171875 63.30859375 C37.99996943 63.38178508 36.79546925 63.01519741 33.609375 60.37109375 C32.29305371 57.61837237 31.53851271 54.74527604 30.734375 51.80859375 C27.1016669 39.87847704 21.22245895 30.40946639 10.21875 23.97265625 C4.0466864 20.92358292 -2.27526558 19.22642091 -8.99609375 17.88989258 C-12.0489777 17.23125836 -14.05654538 16.69439661 -16.328125 14.49609375 C-18.00172403 11.14889569 -18.12452164 7.96932484 -17.390625 4.37109375 C-12.94826115 -2.50740511 -7.12572 -1.32170613 0 0 Z " fill="#0F3E22" transform="translate(312.390625,100.62890625)"/>
<path d="M0 0 C4.51472221 3.81243209 7.56604102 7.54949687 8.3203125 13.546875 C8.58037639 19.82308358 7.9621506 24.97322721 4 30 C-2.56557926 36.05037284 -7.82698597 37.42270202 -16.69921875 37.34375 C-22.89490211 36.69851907 -26.77762567 33.55066437 -30.875 29.0625 C-34.5166469 23.81424417 -35.54826229 19.35984256 -35 13 C-33.60080967 5.99019497 -29.77865662 2.00402119 -24 -2 C-16.05310164 -5.97344918 -7.19700016 -4.93187288 0 0 Z " fill="#0B3C20" transform="translate(149,336)"/>
<path d="M0 0 C4.9847086 4.47992798 6.74051514 9.31865641 7.375 15.875 C7.1962589 21.38443163 5.09449108 25.75661145 1.3515625 29.765625 C-4.42583963 34.96276404 -9.47605504 36.47914955 -17.21484375 36.3125 C-22.89511537 35.67516237 -27.09632782 33.3135062 -30.875 29.0625 C-35.19105331 22.84230552 -35.69966933 17.42305433 -35 10 C-32.93861431 4.14132487 -29.33825213 0.36398041 -24 -2.75 C-15.53575463 -6.27676891 -7.54161141 -5.08695416 0 0 Z " fill="#0D3D21" transform="translate(270,336)"/>
<path d="M0 0 C2.69207751 1.68254844 3.65216939 2.83732147 4.55859375 5.8671875 C5.20356259 9.39124404 5.22407414 11.46929809 3.8125 14.8125 C0.86385164 18.37121354 -0.69381744 19.80649147 -5.375 20.5 C-10.15613064 19.84053371 -11.62434107 18.37565893 -15 15 C-16.57455739 11.85088521 -16.34799118 9.47991184 -16 6 C-11.79770244 -1.05609666 -7.54138469 -1.69077308 0 0 Z " fill="#113F23" transform="translate(313,139)"/>
<path d="M0 0 C0 0.99 0 1.98 0 3 C-2.36468941 4.23348939 -4.73806152 5.43600068 -7.125 6.625 C-7.79015625 6.975625 -8.4553125 7.32625 -9.140625 7.6875 C-12.76961983 9.46641903 -14.25113486 10.19253997 -18.296875 9.15234375 C-19.18890625 8.77207031 -20.0809375 8.39179688 -21 8 C-23.01927511 8.60578253 -25.02253397 9.26919734 -27 10 C-29.1796875 9.56640625 -29.1796875 9.56640625 -31 9 C-20.82703318 5.36534718 -10.45894209 2.6694371 0 0 Z " fill="#465E4A" transform="translate(226,235)"/>
<path d="M0 0 C0.33 0.66 0.66 1.32 1 2 C-0.051875 2.0825 -1.10375 2.165 -2.1875 2.25 C-6.27047209 3.05320762 -8.0122727 4.19334709 -11 7 C-11 4 -11 4 -8.875 1.8125 C-5.58442458 -0.2619932 -3.81365679 -0.35475877 0 0 Z " fill="#28462F" transform="translate(310,138)"/>
<path d="M0 0 C0 0.99 0 1.98 0 3 C-1.98 3.66 -3.96 4.32 -6 5 C-6.66 4.01 -7.32 3.02 -8 2 C-5.36 1.34 -2.72 0.68 0 0 Z " fill="#677262" transform="translate(226,235)"/>
<path d="M0 0 C0.66 0.33 1.32 0.66 2 1 C0.35 2.98 -1.3 4.96 -3 7 C-3.99 6.67 -4.98 6.34 -6 6 C-4.02 4.02 -2.04 2.04 0 0 Z " fill="#2B4933" transform="translate(123,335)"/>
</svg>
